<?xml version="1.0" standalone="no"?>
<!DOCTYPE svg PUBLIC "-//W3C//DTD SVG 20010904//EN"
 "http://www.w3.org/TR/2001/REC-SVG-20010904/DTD/svg10.dtd">
<svg version="1.0" xmlns="http://www.w3.org/2000/svg"
 width="626.000000pt" height="626.000000pt" viewBox="0 0 626.000000 626.000000"
 preserveAspectRatio="xMidYMid meet">
<metadata>
Created by potrace 1.11, written by Peter Selinger 2001-2013
</metadata>
<g transform="translate(0.000000,626.000000) scale(0.100000,-0.100000)"
fill="#000000" stroke="none">
<path d="M2875 4593 c-289 -37 -496 -88 -708 -177 -524 -218 -943 -593 -1228
-1100 l-67 -119 41 -76 c352 -654 935 -1103 1647 -1269 204 -48 294 -57 560
-56 274 0 391 13 609 69 704 179 1278 643 1620 1307 13 25 11 33 -40 125 -338
613 -885 1044 -1559 1226 -193 53 -405 77 -650 76 -107 -1 -208 -4 -225 -6z
m393 -223 c170 -22 356 -91 500 -187 322 -214 514 -556 529 -943 13 -332 -110
-645 -346 -880 -171 -170 -378 -279 -619 -326 -103 -21 -316 -23 -412 -5 -255
48 -472 163 -647 344 -174 180 -273 371 -318 612 -26 135 -16 386 19 513 162
580 704 946 1294 872z"/>
<path d="M3069 3908 c146 -258 12 -578 -274 -654 -130 -35 -289 -1 -388 82
-29 24 -31 25 -41 7 -18 -30 -13 -258 7 -333 69 -258 265 -463 520 -545 99
-32 125 -32 131 -2 3 12 17 116 31 232 14 115 28 211 31 214 2 3 3 -104 2
-237 l-3 -242 35 0 35 0 -3 237 c-1 130 0 235 2 232 3 -3 17 -97 31 -210 35
-276 27 -253 78 -245 119 19 272 97 372 187 108 100 197 252 229 396 20 88 21
245 2 334 -73 341 -390 599 -739 599 l-87 0 29 -52z"/>
</g>
</svg>
